<?xml version="1.0" encoding="UTF-8"?>
<svg width="122px" height="122px" viewBox="0 0 122 122" version="1.1" xmlns="http://www.w3.org/2000/svg" xmlns:xlink="http://www.w3.org/1999/xlink">
    <!-- Generator: Sketch 48.1 (47250) - http://www.bohemiancoding.com/sketch -->
    <title>icon-win-review</title>
    <desc>Created with Sketch.</desc>
    <defs>
        <polygon id="path-1" points="0.06 0.35825 96.931229 0.35825 96.931229 92.8840275 0.06 92.8840275"></polygon>
    </defs>
    <g id="Page-1" stroke="none" stroke-width="1" fill="none" fill-rule="evenodd">
        <g id="icon-win-review">
            <g id="Group" transform="translate(11.000000, 7.000000)">
                <g id="Add-to-Favorites">
                    <path d="M93.75,43.203 C93.566,42.652 93.078,42.262 92.5,42.203 L61.25,39.359 L49.75,11.234 C49.242,10.043 47.555,10.043 47.047,11.234 L35.547,39.359 L4.297,42.203 C3.02,42.328 2.508,43.918 3.469,44.766 L27.047,65.391 L19.797,95.078 C19.535,96.328 20.887,97.293 21.984,96.641 L48.312,80.25 L74.719,96.594 C75.816,97.246 77.168,96.281 76.906,95.031 L69.656,65.344 L93.234,44.719 C93.691,44.359 93.895,43.766 93.75,43.203" id="Fill-1" fill="#F9E3AE"></path>
                    <g id="Group-5" transform="translate(0.000000, 7.000000)">
                        <mask id="mask-2" fill="white">
                            <use xlink:href="#path-1"></use>
                        </mask>
                        <g id="Clip-3"></g>
                        <path d="M93.75,36.203 C93.566,35.652 93.078,35.262 92.5,35.203 L61.25,32.359 L49.75,4.234 C49.559,3.668 49.035,3.277 48.438,3.25 L48.438,73.312 L74.719,89.594 C75.816,90.246 77.168,89.281 76.906,88.031 L69.656,58.344 L93.234,37.719 C93.691,37.359 93.895,36.766 93.75,36.203" id="Fill-2" fill="#F6D397" mask="url(#mask-2)"></path>
                        <path d="M96.875,35.578 C96.684,34.98 96.156,34.559 95.531,34.5 L62.062,31.469 L49.766,1.328 C49.234,0.035 47.406,0.035 46.875,1.328 L34.578,31.469 L1.188,34.5 C-0.184,34.621 -0.742,36.328 0.297,37.234 L25.5,59.266 L17.688,90.922 C17.348,92.285 18.84,93.371 20.031,92.625 L48.312,75.125 L76.562,92.641 C77.754,93.387 79.246,92.301 78.906,90.938 L71.094,59.281 L96.297,37.25 C96.816,36.867 97.047,36.203 96.875,35.578 Z M68.359,57.547 C67.918,57.934 67.73,58.539 67.875,59.109 L75,87.969 L49.141,72 C48.637,71.691 48.004,71.691 47.5,72 L21.703,87.969 L28.766,59.094 C28.91,58.523 28.723,57.918 28.281,57.531 L5.109,37.219 L35.812,34.5 C36.391,34.445 36.891,34.07 37.109,33.531 L48.312,6.062 L59.531,33.531 C59.75,34.07 60.25,34.445 60.828,34.5 L91.531,37.297 L68.359,57.547 Z" id="Fill-4" fill="#8D6C9F" mask="url(#mask-2)"></path>
                    </g>
                    <path d="M4.688,64.938 C3.824,64.938 3.125,65.637 3.125,66.5 L3.125,69.625 C3.125,71.707 6.25,71.707 6.25,69.625 L6.25,66.5 C6.25,65.637 5.551,64.938 4.688,64.938" id="Fill-6" fill="#8D6C9F"></path>
                    <path d="M12.5,64.938 C11.637,64.938 10.938,65.637 10.938,66.5 L10.938,69.625 C10.938,71.707 14.062,71.707 14.062,69.625 L14.062,66.5 C14.062,65.637 13.363,64.938 12.5,64.938" id="Fill-7" fill="#8D6C9F"></path>
                    <path d="M21.875,69.625 L21.875,66.5 C21.875,64.418 18.75,64.418 18.75,66.5 L18.75,69.625 C18.75,71.707 21.875,71.707 21.875,69.625" id="Fill-8" fill="#8D6C9F"></path>
                    <path d="M75,66.5 L75,69.625 C75,71.707 78.125,71.707 78.125,69.625 L78.125,66.5 C78.125,64.418 75,64.418 75,66.5" id="Fill-9" fill="#8D6C9F"></path>
                    <path d="M84.375,64.938 C83.512,64.938 82.812,65.637 82.812,66.5 L82.812,69.625 C82.812,71.707 85.938,71.707 85.938,69.625 L85.938,66.5 C85.938,65.637 85.238,64.938 84.375,64.938" id="Fill-10" fill="#8D6C9F"></path>
                    <path d="M92.188,64.938 C91.324,64.938 90.625,65.637 90.625,66.5 L90.625,69.625 C90.625,71.707 93.75,71.707 93.75,69.625 L93.75,66.5 C93.75,65.637 93.051,64.938 92.188,64.938" id="Fill-11" fill="#8D6C9F"></path>
                    <path d="M50,41.5 C50,39.418 46.875,39.418 46.875,41.5 L46.875,54 L34.375,54 C32.293,54 32.293,57.125 34.375,57.125 L46.875,57.125 L46.875,69.625 C46.875,71.707 50,71.707 50,69.625 L50,57.125 L62.5,57.125 C64.582,57.125 64.582,54 62.5,54 L50,54" id="Fill-12" fill="#8D6C9F"></path>
                </g>
            </g>
        </g>
    </g>
</svg>