<?xml version="1.0" encoding="UTF-8"?>
<svg width="383px" height="117px" viewBox="0 0 383 117" version="1.1" xmlns="http://www.w3.org/2000/svg" xmlns:xlink="http://www.w3.org/1999/xlink">
    <!-- Generator: Sketch 48.1 (47250) - http://www.bohemiancoding.com/sketch -->
    <title>icon-star-5</title>
    <desc>Created with Sketch.</desc>
    <defs></defs>
    <g id="Page-1" stroke="none" stroke-width="1" fill="none" fill-rule="evenodd">
        <g id="icon-star-5" fill="#8F8F8F">
            <polygon id="Star-Copy-25" points="62 76 43.1908719 85.8885438 46.7830957 64.9442719 31.5661915 50.1114562 52.595436 47.0557281 62 28 71.404564 47.0557281 92.4338085 50.1114562 77.2169043 64.9442719 80.8091281 85.8885438"></polygon>
            <polygon id="Star-Copy-26" points="126 76 107.190872 85.8885438 110.783096 64.9442719 95.5661915 50.1114562 116.595436 47.0557281 126 28 135.404564 47.0557281 156.433809 50.1114562 141.216904 64.9442719 144.809128 85.8885438"></polygon>
            <polygon id="Star-Copy-27" points="190 76 171.190872 85.8885438 174.783096 64.9442719 159.566191 50.1114562 180.595436 47.0557281 190 28 199.404564 47.0557281 220.433809 50.1114562 205.216904 64.9442719 208.809128 85.8885438"></polygon>
            <polygon id="Star-Copy-28" points="254 76 235.190872 85.8885438 238.783096 64.9442719 223.566191 50.1114562 244.595436 47.0557281 254 28 263.404564 47.0557281 284.433809 50.1114562 269.216904 64.9442719 272.809128 85.8885438"></polygon>
            <polygon id="Star-Copy-29" points="318 76 299.190872 85.8885438 302.783096 64.9442719 287.566191 50.1114562 308.595436 47.0557281 318 28 327.404564 47.0557281 348.433809 50.1114562 333.216904 64.9442719 336.809128 85.8885438"></polygon>
        </g>
    </g>
</svg>