<?xml version="1.0" encoding="UTF-8"?>
<svg width="64px" height="64px" viewBox="0 0 64 64" version="1.1" xmlns="http://www.w3.org/2000/svg" xmlns:xlink="http://www.w3.org/1999/xlink">
    <!-- Generator: Sketch 48.1 (47250) - http://www.bohemiancoding.com/sketch -->
    <title>icon-twitter</title>
    <desc>Created with Sketch.</desc>
    <defs></defs>
    <g id="Page-1" stroke="none" stroke-width="1" fill="none" fill-rule="evenodd">
        <g id="icon-twitter" fill="#727272">
            <path d="M50.8960736,16.5893041 C49.3108459,17.5159247 47.5522965,18.1892246 45.6830878,18.5518733 C44.1885208,16.9812846 42.0553296,16 39.6941537,16 C35.1637891,16 31.4893674,19.6171538 31.4893674,24.0782656 C31.4893674,24.7115675 31.5626958,25.3262037 31.70002,25.9181743 C24.8804746,25.5808577 18.8342111,22.3650173 14.7864809,17.4785933 C14.0811946,18.6705341 13.674555,20.0584652 13.674555,21.539725 C13.674555,24.3409192 15.1264582,26.8141298 17.3263116,28.2620579 C15.9824012,28.2193934 14.7158189,27.8567447 13.6092261,27.2527747 L13.6092261,27.354103 C13.6092261,31.2672421 16.4383708,34.5324133 20.1927871,35.2763764 C19.5034998,35.4603672 18.779548,35.559029 18.0289314,35.559029 C17.5009666,35.559029 16.9876675,35.5083648 16.4850343,35.4137029 C17.5316312,38.6215436 20.5607626,40.9587609 24.1511899,41.024091 C21.3420439,43.1906501 17.8049463,44.482586 13.9585361,44.482586 C13.2945804,44.482586 12.6439571,44.4439212 12,44.3692583 C15.6330911,46.6611445 19.9488034,47.9984114 24.5804946,47.9984114 C39.6754883,47.9984114 47.9282714,35.6910224 47.9282714,25.0155524 C47.9282714,24.6662364 47.9229385,24.3155872 47.9069395,23.970271 C49.5081661,22.8316608 50.9014066,21.4090648 52,19.787812 C50.5294314,20.43178 48.9482035,20.8637585 47.2869809,21.0597488 C48.9828678,20.0597985 50.2814479,18.4772104 50.8960736,16.5893041" id="Fill-11-Copy-4"></path>
        </g>
    </g>
</svg>