<?xml version="1.0" encoding="UTF-8"?>
<svg width="64px" height="64px" viewBox="0 0 64 64" version="1.1" xmlns="http://www.w3.org/2000/svg" xmlns:xlink="http://www.w3.org/1999/xlink">
    <!-- Generator: Sketch 48.1 (47250) - http://www.bohemiancoding.com/sketch -->
    <title>icon-yelp</title>
    <desc>Created with Sketch.</desc>
    <defs></defs>
    <g id="Page-1" stroke="none" stroke-width="1" fill="none" fill-rule="evenodd">
        <g id="icon-yelp" fill="#727272" fill-rule="nonzero">
            <path d="M44.2300138,21.8985579 C44.2300138,21.8985579 43.8018848,21.1441691 42.9133243,21.069325 C41.9336418,20.9835765 41.3300184,22.196943 41.3300184,22.196943 L35.4871186,31.6079683 C35.4871186,31.6079683 34.9702781,32.544263 35.4591552,33.3913397 C35.9899773,34.3117733 37.4527512,34.0431275 37.4527512,34.0431275 L47.7938982,30.9502325 C47.7938982,30.9502325 49.2031562,30.3633755 49.4046853,29.5822213 C49.6018754,28.79958 49.1718179,27.8558506 49.1718179,27.8558506 L44.2300138,21.8985579 Z" id="Fill-152"></path>
            <path d="M31.5427222,30.0867773 C32.77632,29.7804618 32.9721525,27.9698294 32.9721525,27.9698294 L32.8881546,12.9018791 C32.8881546,12.9018791 32.7020893,11.0441595 31.8757838,10.540077 C30.5791875,9.7450444 30.1953363,10.1604043 29.8236942,10.2149265 L21.1269758,13.4808056 C21.1269758,13.4808056 20.2747872,13.7653123 19.8318446,14.4825269 C19.1984414,15.5011005 20.4750149,16.9905475 20.4750149,16.9905475 L29.5150506,29.4389546 C29.5150506,29.4389546 30.4067963,30.369797 31.5427222,30.0867773" id="Fill-153"></path>
            <path d="M13.5185326,38.4526755 C13.5185326,38.4526755 13.4288893,39.7651733 13.7604731,40.3614478 C14.2313414,41.2080286 15.779375,40.6186934 15.779375,40.6186934 L26.5486194,38.1815515 C26.9669547,37.8930797 27.7009694,37.8673054 27.7414534,36.3302755 C27.7722986,35.1689528 26.3784898,34.4705731 26.3784898,34.4705731 L17.1534237,29.6993861 C17.1534237,29.6993861 15.7861224,29.1219466 15.1219909,29.524915 C14.6140122,29.8327176 14.1633859,30.3878526 14.1195282,30.8805349 L13.5185326,38.4526755 Z" id="Fill-154"></path>
            <path d="M32.3818525,40.6040346 C31.4105445,40.1177957 30.2484168,41.125465 30.2484168,41.125465 L22.6753526,49.2527406 C22.6753526,49.2527406 21.7308709,50.4943595 21.9707875,51.2581658 C22.1970379,51.9729021 22.5720974,52.329279 23.1020398,52.5800811 L30.7080038,54.9200742 C30.7080038,54.9200742 31.6297088,55.106441 32.3282002,54.9091698 C33.3197544,54.6301154 33.1365269,53.1163811 33.1365269,53.1163811 L33.308619,42.1123165 C33.308619,42.1123165 33.2701514,41.0521078 32.3818525,40.6040346" id="Fill-155"></path>
            <path d="M49.9888456,41.1586222 L39.5856986,37.7524725 C39.5847307,37.7524725 38.5660478,37.4773832 37.8870874,38.1762586 C37.1486027,38.934117 37.7728787,40.3160067 37.7728787,40.3160067 L43.3313541,49.779076 C43.3313541,49.779076 44.2440552,51.026147 45.0352886,51.026147 C45.8289418,51.026147 46.613884,50.361472 46.613884,50.361472 L51.0080123,43.9566019 C51.0080123,43.9566019 51.4508126,43.1491778 51.4609754,42.4413806 C51.4769451,41.4351986 49.9888456,41.1586222 49.9888456,41.1586222" id="Fill-156"></path>
        </g>
    </g>
</svg>