<?xml version="1.0" encoding="UTF-8"?>
<svg width="140px" height="64px" viewBox="0 0 140 64" version="1.1" xmlns="http://www.w3.org/2000/svg" xmlns:xlink="http://www.w3.org/1999/xlink">
    <!-- Generator: Sketch 48.1 (47250) - http://www.bohemiancoding.com/sketch -->
    <title>icon-yelp</title>
    <desc>Created with Sketch.</desc>
    <defs></defs>
    <g id="Page-1" stroke="none" stroke-width="1" fill="none" fill-rule="evenodd">
        <g id="icon-yelp" fill="#727272" fill-rule="nonzero">
            <path d="M82.8499334,21.8326352 C82.8499334,21.8326352 82.428058,21.0790949 81.5524763,21.0043349 C80.5871036,20.9186829 79.9922972,22.1306847 79.9922972,22.1306847 L74.2347424,31.5311246 C74.2347424,31.5311246 73.7254512,32.4663662 74.2071874,33.31249 C74.730256,34.2318884 76.1716637,33.9635448 76.1716637,33.9635448 L86.3617616,30.8741286 C86.3617616,30.8741286 87.750435,30.2879317 87.9490204,29.5076561 C88.1433302,28.7258951 87.7195545,27.7832272 87.7195545,27.7832272 L82.8499334,21.8326352 Z" id="Fill-152"></path>
            <path d="M70.6045595,29.9466619 C71.8088241,29.6416015 72,27.8383882 72,27.8383882 L71.9179994,12.8321784 C71.9179994,12.8321784 71.7363585,10.9820708 70.9297014,10.4800538 C69.6639363,9.6882788 69.2892125,10.1019368 68.9264075,10.1562356 L60.4364845,13.4087328 C60.4364845,13.4087328 59.6045597,13.6920737 59.1721497,14.4063496 C58.5538079,15.4207496 59.8000263,16.9040936 59.8000263,16.9040936 L68.625103,29.3014936 C68.625103,29.3014936 69.4956443,30.2285219 70.6045595,29.9466619" id="Fill-153"></path>
            <path d="M53.0108587,37.7246116 C53.0108587,37.7246116 52.922692,38.9870409 53.248814,39.5605692 C53.7119264,40.3748551 55.2344612,39.8080015 55.2344612,39.8080015 L65.8263177,37.4638303 C66.2377624,37.1863629 66.9596866,37.1615719 66.9995038,35.6831757 C67.0298409,34.5661545 65.6589905,33.8944162 65.6589905,33.8944162 L56.5858769,29.3052377 C56.5858769,29.3052377 55.2410974,28.749826 54.5879053,29.1374222 C54.0882938,29.4334829 53.6450902,29.967441 53.6019548,30.4413287 L53.0108587,37.7246116 Z" id="Fill-154"></path>
            <path d="M71.1039331,40.1368868 C70.1648001,39.6348613 69.0411685,40.6752463 69.0411685,40.6752463 L61.7189661,49.0663883 C61.7189661,49.0663883 60.8057707,50.3483185 61.03774,51.1369231 C61.2564958,51.8748646 61.6191312,52.2428119 62.131519,52.5017568 L69.4855315,54.9177219 C69.4855315,54.9177219 70.3767045,55.1101393 71.052058,54.9064634 C72.0107665,54.618349 71.8336085,53.0554687 71.8336085,53.0554687 L72,41.6941377 C72,41.6941377 71.9628066,40.5995075 71.1039331,40.1368868" id="Fill-155"></path>
            <path d="M89.5208436,41.3746253 L79.0689477,38.0520629 C79.0679753,38.0520629 78.0445189,37.7837243 77.3623768,38.4654492 C76.6204316,39.2047097 77.247633,40.5526877 77.247633,40.5526877 L82.8321553,49.7835322 C82.8321553,49.7835322 83.7491333,51 84.5440744,51 C85.3414466,51 86.130067,50.3516362 86.130067,50.3516362 L90.5447862,44.1039423 C90.5447862,44.1039423 90.9896614,43.3163324 90.9998718,42.6259047 C91.0159164,41.6444144 89.5208436,41.3746253 89.5208436,41.3746253" id="Fill-156"></path>
        </g>
    </g>
</svg>