<?xml version="1.0" encoding="UTF-8"?>
<svg width="122px" height="122px" viewBox="0 0 122 122" version="1.1" xmlns="http://www.w3.org/2000/svg" xmlns:xlink="http://www.w3.org/1999/xlink">
    <!-- Generator: Sketch 48.1 (47250) - http://www.bohemiancoding.com/sketch -->
    <title>icon-win-hubt</title>
    <desc>Created with Sketch.</desc>
    <defs></defs>
    <g id="Page-1" stroke="none" stroke-width="1" fill="none" fill-rule="evenodd">
        <g id="icon-win-hubt">
            <g id="Group-28" opacity="0.300000012" transform="translate(20.000000, 20.000000)">
                <polygon id="Fill-1" fill="#C5E4FA" points="1 77 79.125 77 79.125 2 1 2"></polygon>
                <path d="M74.437,9.812 L5.687,9.812 C3.097,9.812 1,7.714 1,5.124 C1,3.398 2.398,2 4.124,2 L76,2 C77.726,2 79.124,3.398 79.124,5.124 C79.124,7.714 77.027,9.812 74.437,9.812" id="Fill-2" fill="#ACE3FF"></path>
                <path d="M77.562,76.813 L2.562,76.813 C1.699,76.813 1,76.113 1,75.25 C1,71.797 3.796,69 7.25,69 L74.437,69 C77.027,69 79.124,71.098 79.124,73.687 L79.124,75.25 C79.124,76.113 78.425,76.813 77.562,76.813" id="Fill-3" fill="#6FC6F0"></path>
                <path d="M9.562,7 C8.699,7 8,7.699 8,8.563 L8,11.687 C8,13.77 11.124,13.77 11.124,11.687 L11.124,8.563 C11.124,7.699 10.425,7 9.562,7" id="Fill-5" fill="#8D6C9F"></path>
                <path d="M16.562,13.24925 C17.426,13.24925 18.125,12.55025 18.125,11.68625 L18.125,8.56225 C18.125,6.47925 15,6.47925 15,8.56225 L15,11.68625 C15,12.55025 15.699,13.24925 16.562,13.24925" id="Fill-6" fill="#8D6C9F"></path>
                <path d="M24.563,13.24925 C25.426,13.24925 26.126,12.55025 26.126,11.68625 L26.126,8.56225 C26.126,6.47925 23,6.47925 23,8.56225 L23,11.68625 C23,12.55025 23.7,13.24925 24.563,13.24925" id="Fill-7" fill="#8D6C9F"></path>
                <path d="M32.563,13.24925 C33.426,13.24925 34.125,12.55025 34.125,11.68625 L34.125,8.56225 C34.125,6.47925 31,6.47925 31,8.56225 L31,11.68625 C31,12.55025 31.699,13.24925 32.563,13.24925" id="Fill-8" fill="#8D6C9F"></path>
                <path d="M40.562,13.24925 C41.425,13.24925 42.124,12.55025 42.124,11.68625 L42.124,8.56225 C42.124,6.47925 39,6.47925 39,8.56225 L39,11.68625 C39,12.55025 39.699,13.24925 40.562,13.24925" id="Fill-9" fill="#8D6C9F"></path>
                <path d="M48.562,13.24925 C49.426,13.24925 50.125,12.55025 50.125,11.68625 L50.125,8.56225 C50.125,6.47925 47,6.47925 47,8.56225 L47,11.68625 C47,12.55025 47.699,13.24925 48.562,13.24925" id="Fill-10" fill="#8D6C9F"></path>
                <path d="M56.563,13.24925 C57.426,13.24925 58.126,12.55025 58.126,11.68625 L58.126,8.56225 C58.126,6.47925 55,6.47925 55,8.56225 L55,11.68625 C55,12.55025 55.7,13.24925 56.563,13.24925" id="Fill-11" fill="#8D6C9F"></path>
                <path d="M63.563,13.24925 C64.426,13.24925 65.125,12.55025 65.125,11.68625 L65.125,8.56225 C65.125,6.47925 62,6.47925 62,8.56225 L62,11.68625 C62,12.55025 62.699,13.24925 63.563,13.24925" id="Fill-12" fill="#8D6C9F"></path>
                <path d="M71.562,13.24925 C72.425,13.24925 73.124,12.55025 73.124,11.68625 L73.124,8.56225 C73.124,6.47925 70,6.47925 70,8.56225 L70,11.68625 C70,12.55025 70.699,13.24925 71.562,13.24925" id="Fill-13" fill="#8D6C9F"></path>
                <polyline id="Fill-2-Copy" fill="#E3F2FF" opacity="0.600000024" points="45.9383723 68.437 78 36 78 10 20 68.437"></polyline>
                <path d="M61.112119,25.6077281 C59.4773308,26.5633186 57.6638022,27.2576685 55.7361546,27.631655 C54.1948615,26.0119635 51.9949783,25 49.5599827,25 C44.8879809,25 41.0986822,28.7302403 41.0986822,33.3308242 C41.0986822,33.9839256 41.1743032,34.6177778 41.3159207,35.2282557 C34.2831693,34.8803933 28.0478756,31.564013 23.8735973,26.5248199 C23.146261,27.7540256 22.7269083,29.1853489 22.7269083,30.7129187 C22.7269083,33.6016894 24.2242037,36.1522224 26.4928332,37.6454184 C25.1069068,37.60142 23.8007262,37.2274335 22.6595368,36.604581 L22.6595368,36.7090772 C22.6595368,40.7445565 25.5771318,44.11181 29.4489261,44.8790323 C28.7380889,45.0687754 27.9915036,45.1705217 27.2174197,45.1705217 C26.6729486,45.1705217 26.1436017,45.1182736 25.6252543,45.0206522 C26.7045719,48.3287827 29.828406,50.7390707 33.5310843,50.8064433 C30.6341132,53.0407376 26.986432,54.3730645 23.0197677,54.3730645 C22.3350541,54.3730645 21.6640897,54.3331909 21,54.2561937 C24.746676,56.6197334 29.1973145,57.9988086 33.9738107,57.9988086 C49.5407337,57.9988086 58.0515316,45.3066418 58.0515316,34.2974143 C58.0515316,33.9371773 58.0460319,33.5755654 58.0295328,33.2194532 C59.68082,32.0452456 61.1176187,30.5781736 62.2505585,28.906234 C60.7340141,29.570335 59.1033507,30.0158189 57.3901917,30.2179366 C59.1390988,29.1867238 60.4782777,27.5546578 61.112119,25.6077281" id="Fill-11-Copy-3" fill="#2DAAE1"></path>
                <path d="M88.5,70.75 C88.5,81.105 80.105,89.5 69.75,89.5 C59.394,89.5 51,81.105 51,70.75 C51,60.394 59.394,52 69.75,52 C80.105,52 88.5,60.394 88.5,70.75" id="Fill-4" fill="#72CAAF"></path>
                <path d="M81.25,53.219 L81.25,4.687 C81.25,2.098 79.152,0 76.563,0 L4.687,0 C2.098,0 0,2.098 0,4.687 L0,73.437 C0,76.027 2.098,78.125 4.687,78.125 L51.563,78.125 C54.039,84.102 59.219,88.539 65.5,90.074 C71.785,91.609 78.426,90.063 83.379,85.906 C88.336,81.746 91.016,75.477 90.594,69.023 C90.176,62.566 86.703,56.699 81.25,53.219 Z M4.687,75 C3.824,75 3.125,74.301 3.125,73.437 L3.125,4.687 C3.125,3.824 3.824,3.125 4.687,3.125 L76.563,3.125 C77.426,3.125 78.125,3.824 78.125,4.687 L78.125,51.563 C71.078,48.633 62.984,49.902 57.168,54.844 C51.355,59.789 48.805,67.574 50.563,75 L4.687,75 Z M70.313,87.5 C63.359,87.5 57.094,83.313 54.434,76.891 C51.773,70.469 53.242,63.074 58.16,58.16 C63.074,53.242 70.469,51.773 76.891,54.434 C83.313,57.094 87.5,63.359 87.5,70.313 C87.5,79.805 79.805,87.5 70.313,87.5 Z" id="Fill-19" fill="#8D6C9F"></path>
                <path d="M79.3115,69.3745 L71.4995,69.3745 L71.4995,61.5615 C71.4995,59.4795 68.3745,59.4795 68.3745,61.5615 L68.3745,69.3745 L60.5615,69.3745 C58.4795,69.3745 58.4795,72.4995 60.5615,72.4995 L68.3745,72.4995 L68.3745,80.3115 C68.3745,82.3945 71.4995,82.3945 71.4995,80.3115 L71.4995,72.4995 L79.3115,72.4995 C81.3945,72.4995 81.3945,69.3745 79.3115,69.3745" id="Fill-21" fill="#FAEFDE"></path>
            </g>
            <rect id="Rectangle-29" fill="#FFFFFF" opacity="0.471354167" transform="translate(58.711905, 55.867075) rotate(-21.000000) translate(-58.711905, -55.867075) " x="12.2119052" y="43.8670748" width="93" height="24"></rect>
            <text id="PLACEHOLDER" opacity="0.400000006" transform="translate(58.891089, 56.333865) rotate(-21.000000) translate(-58.891089, -56.333865) " font-family="GothamBlack, Gotham Black" font-size="8" font-weight="700" letter-spacing="1" fill="#333333">
                <tspan x="22.3910892" y="58.833865">PLACEHOLDE</tspan>
                <tspan x="89.3590892" y="58.833865">R</tspan>
            </text>
        </g>
    </g>
</svg>