<?xml version="1.0" encoding="UTF-8"?>
<svg width="122px" height="122px" viewBox="0 0 122 122" version="1.1" xmlns="http://www.w3.org/2000/svg" xmlns:xlink="http://www.w3.org/1999/xlink">
    <!-- Generator: Sketch 48.1 (47250) - http://www.bohemiancoding.com/sketch -->
    <title>icon-win-interaction</title>
    <desc>Created with Sketch.</desc>
    <defs></defs>
    <g id="Page-1" stroke="none" stroke-width="1" fill="none" fill-rule="evenodd">
        <g id="icon-win-interaction">
            <g id="Group" transform="translate(17.000000, 20.000000)">
                <path d="M6.5,64.562 L53.375,64.562 C53.375,64.562 62.75,80.188 70.562,78.625 C69,72.375 67.953,64.562 67.953,64.562 L81.5,64.562 C84.09,64.562 86.188,62.465 86.188,59.875 L86.188,6.75 C86.188,4.16 84.09,2.062 81.5,2.062 L6.5,2.062 C3.91,2.062 1.812,4.16 1.812,6.75 L1.812,59.875 C1.812,62.465 3.91,64.562 6.5,64.562" id="Fill-1" fill="#C5E4FA"></path>
                <polyline id="Fill-2" fill="#E3F2FF" points="57.874 58.437 85.312 31 84.437 10 36 58.437"></polyline>
                <polyline id="Fill-3" fill="#E3F2FF" points="22.125 59.813 19 58.25 75.25 2 82.281 2 83.656 3.86 23.688 63.813"></polyline>
                <polyline id="Fill-4" fill="#E3F2FF" points="11.188 58.312 4.938 58.312 61.188 2.062 67.438 2.062"></polyline>
                <polyline id="Fill-5" fill="#FFF8F8" points="71.344 38 73.281 41.531 76.812 43.469 73.281 45.406 71.344 48.938 69.406 45.406 65.875 43.469 69.406 41.531"></polyline>
                <polyline id="Fill-6" fill="#FFF8F8" points="18.781 6 20.109 8.438 22.563 9.782 20.109 11.11 18.781 13.563 17.437 11.11 15 9.782 17.437 8.438"></polyline>
                <polyline id="Fill-7" fill="#FFF8F8" points="10.328 39.125 11.234 40.781 12.906 41.703 11.234 42.609 10.328 44.281 9.406 42.609 7.75 41.703 9.406 40.781"></polyline>
                <path d="M86.188,63 C86.188,63.863 85.488,64.562 84.625,64.562 L67.953,64.562 C67.953,64.562 69,72.375 70.562,78.625 C62.75,80.188 53.375,64.562 53.375,64.562 L3.375,64.562 C2.512,64.562 1.812,63.863 1.812,63 C1.812,59.547 4.609,56.75 8.062,56.75 L79.938,56.75 C81.594,56.75 83.184,57.41 84.355,58.582 C85.527,59.754 86.188,61.344 86.188,63" id="Fill-8" fill="#CED8ED"></path>
                <path d="M83.062,0.5 L4.938,0.5 C2.348,0.5 0.25,2.598 0.25,5.188 L0.25,61.438 C0.25,64.027 2.348,66.125 4.938,66.125 L52.344,66.125 C56.074,74.047 63.242,79.809 71.781,81.75 L72.125,81.75 C73.336,81.75 74.086,80.434 73.469,79.391 C71.086,75.332 69.598,70.809 69.109,66.125 L83.062,66.125 C85.652,66.125 87.75,64.027 87.75,61.438 L87.75,5.188 C87.75,2.598 85.652,0.5 83.062,0.5 Z M84.625,61.438 C84.625,62.301 83.926,63 83.062,63 L67.438,63 C66.574,63 65.875,63.699 65.875,64.562 C66.047,69.086 67.109,73.527 69,77.641 C62.672,75.129 57.578,70.238 54.812,64.016 C54.586,63.414 54.016,63.012 53.375,63 L4.938,63 C4.074,63 3.375,62.301 3.375,61.438 L3.375,5.188 C3.375,4.324 4.074,3.625 4.938,3.625 L83.062,3.625 C83.926,3.625 84.625,4.324 84.625,5.188 L84.625,61.438 Z" id="Fill-9" fill="#8D6C9F"></path>
                <path d="M70.562,53.625 C69.699,53.625 69,54.324 69,55.188 L69,58.312 C69,60.395 72.125,60.395 72.125,58.312 L72.125,55.188 C72.125,54.324 71.426,53.625 70.562,53.625" id="Fill-10" fill="#8D6C9F"></path>
                <path d="M78.375,53.625 C77.512,53.625 76.812,54.324 76.812,55.188 L76.812,58.312 C76.812,60.395 79.938,60.395 79.938,58.312 L79.938,55.188 C79.938,54.324 79.238,53.625 78.375,53.625" id="Fill-11" fill="#8D6C9F"></path>
                <path d="M62.75,53.625 C61.887,53.625 61.188,54.324 61.188,55.188 L61.188,58.312 C61.188,60.395 64.312,60.395 64.312,58.312 L64.312,55.188 C64.312,54.324 63.613,53.625 62.75,53.625" id="Fill-12" fill="#8D6C9F"></path>
                <path d="M54.938,53.625 C54.074,53.625 53.375,54.324 53.375,55.188 L53.375,58.312 C53.375,60.395 56.5,60.395 56.5,58.312 L56.5,55.188 C56.5,54.324 55.801,53.625 54.938,53.625" id="Fill-13" fill="#8D6C9F"></path>
                <path d="M47.125,53.625 C46.262,53.625 45.562,54.324 45.562,55.188 L45.562,58.312 C45.562,60.395 48.688,60.395 48.688,58.312 L48.688,55.188 C48.688,54.324 47.988,53.625 47.125,53.625" id="Fill-14" fill="#8D6C9F"></path>
                <path d="M39.312,53.625 C38.449,53.625 37.75,54.324 37.75,55.188 L37.75,58.312 C37.75,60.395 40.875,60.395 40.875,58.312 L40.875,55.188 C40.875,54.324 40.176,53.625 39.312,53.625" id="Fill-15" fill="#8D6C9F"></path>
                <path d="M31.5,53.625 C30.637,53.625 29.938,54.324 29.938,55.188 L29.938,58.312 C29.938,60.395 33.062,60.395 33.062,58.312 L33.062,55.188 C33.062,54.324 32.363,53.625 31.5,53.625" id="Fill-16" fill="#8D6C9F"></path>
                <path d="M23.688,53.625 C22.824,53.625 22.125,54.324 22.125,55.188 L22.125,58.312 C22.125,60.395 25.25,60.395 25.25,58.312 L25.25,55.188 C25.25,54.324 24.551,53.625 23.688,53.625" id="Fill-17" fill="#8D6C9F"></path>
                <path d="M15.875,53.625 C15.012,53.625 14.312,54.324 14.312,55.188 L14.312,58.312 C14.312,60.395 17.438,60.395 17.438,58.312 L17.438,55.188 C17.438,54.324 16.738,53.625 15.875,53.625" id="Fill-18" fill="#8D6C9F"></path>
                <path d="M8.062,53.625 C7.199,53.625 6.5,54.324 6.5,55.188 L6.5,58.312 C6.5,60.395 9.625,60.395 9.625,58.312 L9.625,55.188 C9.625,54.324 8.926,53.625 8.062,53.625" id="Fill-19" fill="#8D6C9F"></path>
                <path d="M67.438,25.5 L61.188,25.5 C59.105,25.5 59.105,28.625 61.188,28.625 L67.438,28.625 C69.52,28.625 69.52,25.5 67.438,25.5" id="Fill-20" fill="#8D6C9F"></path>
                <path d="M20.562,28.625 L54.938,28.625 C57.02,28.625 57.02,25.5 54.938,25.5 L20.562,25.5 C18.48,25.5 18.48,28.625 20.562,28.625" id="Fill-21" fill="#8D6C9F"></path>
                <path d="M62.75,36.438 C62.75,35.574 62.051,34.875 61.188,34.875 L20.562,34.875 C18.48,34.875 18.48,38 20.562,38 L61.188,38 C62.051,38 62.75,37.301 62.75,36.438" id="Fill-22" fill="#8D6C9F"></path>
            </g>
        </g>
    </g>
</svg>