<?xml version="1.0" encoding="UTF-8"?>
<svg width="64px" height="64px" viewBox="0 0 64 64" version="1.1" xmlns="http://www.w3.org/2000/svg" xmlns:xlink="http://www.w3.org/1999/xlink">
    <!-- Generator: Sketch 48.1 (47250) - http://www.bohemiancoding.com/sketch -->
    <title>winbox-yelp</title>
    <desc>Created with Sketch.</desc>
    <defs></defs>
    <g id="Page-1" stroke="none" stroke-width="1" fill="none" fill-rule="evenodd">
        <g id="winbox-yelp" fill="#FAFAFE" fill-rule="nonzero">
            <g id="Group-15" transform="translate(8.000000, 9.000000)">
                <path d="M31.2300138,12.8985579 C31.2300138,12.8985579 30.8018848,12.1441691 29.9133243,12.069325 C28.9336418,11.9835765 28.3300184,13.196943 28.3300184,13.196943 L22.4871186,22.6079683 C22.4871186,22.6079683 21.9702781,23.544263 22.4591552,24.3913397 C22.9899773,25.3117733 24.4527512,25.0431275 24.4527512,25.0431275 L34.7938982,21.9502325 C34.7938982,21.9502325 36.2031562,21.3633755 36.4046853,20.5822213 C36.6018754,19.79958 36.1718179,18.8558506 36.1718179,18.8558506 L31.2300138,12.8985579 Z" id="Fill-152"></path>
                <path d="M18.5427222,21.0867773 C19.77632,20.7804618 19.9721525,18.9698294 19.9721525,18.9698294 L19.8881546,3.9018791 C19.8881546,3.9018791 19.7020893,2.04415946 18.8757838,1.54007704 C17.5791875,0.7450444 17.1953363,1.16040434 16.8236942,1.21492653 L8.12697584,4.48080562 C8.12697584,4.48080562 7.2747872,4.7653123 6.83184464,5.48252691 C6.19844144,6.50110048 7.47501488,7.99054752 7.47501488,7.99054752 L16.5150506,20.4389546 C16.5150506,20.4389546 17.4067963,21.369797 18.5427222,21.0867773" id="Fill-153"></path>
                <path d="M0.51853264,29.4526755 C0.51853264,29.4526755 0.42888928,30.7651733 0.76047312,31.3614478 C1.23134144,32.2080286 2.77937504,31.6186934 2.77937504,31.6186934 L13.5486194,29.1815515 C13.9669547,28.8930797 14.7009694,28.8673054 14.7414534,27.3302755 C14.7722986,26.1689528 13.3784898,25.4705731 13.3784898,25.4705731 L4.15342368,20.6993861 C4.15342368,20.6993861 2.7861224,20.1219466 2.12199088,20.524915 C1.61401216,20.8327176 1.16338592,21.3878526 1.11952816,21.8805349 L0.51853264,29.4526755 Z" id="Fill-154"></path>
                <path d="M19.3818525,31.6040346 C18.4105445,31.1177957 17.2484168,32.125465 17.2484168,32.125465 L9.67535264,40.2527406 C9.67535264,40.2527406 8.73087088,41.4943595 8.97078752,42.2581658 C9.19703792,42.9729021 9.57209744,43.329279 10.1020398,43.5800811 L17.7080038,45.9200742 C17.7080038,45.9200742 18.6297088,46.106441 19.3282002,45.9091698 C20.3197544,45.6301154 20.1365269,44.1163811 20.1365269,44.1163811 L20.308619,33.1123165 C20.308619,33.1123165 20.2701514,32.0521078 19.3818525,31.6040346" id="Fill-155"></path>
                <path d="M36.9888456,32.1586222 L26.5856986,28.7524725 C26.5847307,28.7524725 25.5660478,28.4773832 24.8870874,29.1762586 C24.1486027,29.934117 24.7728787,31.3160067 24.7728787,31.3160067 L30.3313541,40.779076 C30.3313541,40.779076 31.2440552,42.026147 32.0352886,42.026147 C32.8289418,42.026147 33.613884,41.361472 33.613884,41.361472 L38.0080123,34.9566019 C38.0080123,34.9566019 38.4508126,34.1491778 38.4609754,33.4413806 C38.4769451,32.4351986 36.9888456,32.1586222 36.9888456,32.1586222" id="Fill-156"></path>
            </g>
        </g>
    </g>
</svg>