<?xml version="1.0" encoding="UTF-8"?>
<svg width="42px" height="34px" viewBox="0 0 42 34" version="1.1" xmlns="http://www.w3.org/2000/svg" xmlns:xlink="http://www.w3.org/1999/xlink">
    <!-- Generator: Sketch 48.1 (47250) - http://www.bohemiancoding.com/sketch -->
    <title>Artboard Copy 4</title>
    <desc>Created with Sketch.</desc>
    <defs></defs>
    <g id="Page-1" stroke="none" stroke-width="1" fill="none" fill-rule="evenodd">
        <g id="Artboard-Copy-4" fill="#FFFFFF">
            <path d="M18.6940735,4.28130217 C16.7978481,5.37062314 15.2647527,6.30863547 14.0947412,7.09536728 C12.9247298,7.88209909 11.7345636,8.92097295 10.524207,10.21202 C9.39454082,11.4223767 8.52713157,12.6932321 7.92195326,14.0246244 C7.31677494,15.3560167 6.89315647,17.0706629 6.65108514,19.1686144 L9.55592654,19.1686144 C12.0573303,19.1686144 14.0241303,19.7838698 15.4563856,21.014399 C16.888641,22.2449282 17.6047579,24.0503498 17.6047579,26.4307179 C17.6047579,28.1252172 16.9693302,29.7087433 15.6984558,31.1813439 C14.4275813,32.6539445 12.6826766,33.3902337 10.4636895,33.3902337 C6.99400046,33.3902337 4.51280657,32.2504983 3.02003339,29.9709933 C1.5272602,27.6914883 0.780884808,24.6959006 0.780884808,20.9841402 C0.780884808,18.3617009 1.34570943,15.9712824 2.47537563,13.812813 C3.60504182,11.6543437 4.97675876,9.72788827 6.59056761,8.03338898 C8.24472168,6.29854447 9.99971248,4.82596598 11.8555927,3.61560935 C13.7114728,2.40525271 15.2647405,1.41680962 16.5154424,0.650250417 L18.6940735,4.28130217 Z M41.0855593,4.28130217 C39.1893339,5.37062314 37.6562385,6.30863547 36.486227,7.09536728 C35.3162156,7.88209909 34.1260495,8.92097295 32.9156928,10.21202 C31.7456814,11.4627219 30.868186,12.7436634 30.2831803,14.0548831 C29.6981746,15.3661028 29.2846423,17.0706629 29.042571,19.1686144 L31.9474124,19.1686144 C34.4488161,19.1686144 36.4156161,19.7838698 37.8478715,21.014399 C39.2801268,22.2449282 39.9962437,24.0503498 39.9962437,26.4307179 C39.9962437,28.1252172 39.360816,29.7087433 38.0899416,31.1813439 C36.8190671,32.6539445 35.0741625,33.3902337 32.8551753,33.3902337 C29.3854863,33.3902337 26.9042924,32.2504983 25.4115192,29.9709933 C23.918746,27.6914883 23.1723706,24.6959006 23.1723706,20.9841402 C23.1723706,18.3617009 23.7371952,15.9712824 24.8668614,13.812813 C25.9965276,11.6543437 27.3682446,9.72788827 28.9820534,8.03338898 C30.6362075,6.29854447 32.3911983,4.82596598 34.2470785,3.61560935 C36.1029586,2.40525271 37.6562264,1.41680962 38.9069282,0.650250417 L41.0855593,4.28130217 Z" id="“-copy-3"></path>
        </g>
    </g>
</svg>