<?xml version="1.0" encoding="UTF-8"?>
<svg width="64px" height="64px" viewBox="0 0 64 64" version="1.1" xmlns="http://www.w3.org/2000/svg" xmlns:xlink="http://www.w3.org/1999/xlink">
    <!-- Generator: Sketch 48.1 (47250) - http://www.bohemiancoding.com/sketch -->
    <title>winbox-twitter</title>
    <desc>Created with Sketch.</desc>
    <defs></defs>
    <g id="Page-1" stroke="none" stroke-width="1" fill="none" fill-rule="evenodd">
        <g id="winbox-twitter" fill="#FFFFFF">
            <path d="M46.8960736,16.5893041 C45.3108459,17.5159247 43.5522965,18.1892246 41.6830878,18.5518733 C40.1885208,16.9812846 38.0553296,16 35.6941537,16 C31.1637891,16 27.4893674,19.6171538 27.4893674,24.0782656 C27.4893674,24.7115675 27.5626958,25.3262037 27.70002,25.9181743 C20.8804746,25.5808577 14.8342111,22.3650173 10.7864809,17.4785933 C10.0811946,18.6705341 9.67455503,20.0584652 9.67455503,21.539725 C9.67455503,24.3409192 11.1264582,26.8141298 13.3263116,28.2620579 C11.9824012,28.2193934 10.7158189,27.8567447 9.60922605,27.2527747 L9.60922605,27.354103 C9.60922605,31.2672421 12.4383708,34.5324133 16.1927871,35.2763764 C15.5034998,35.4603672 14.779548,35.559029 14.0289314,35.559029 C13.5009666,35.559029 12.9876675,35.5083648 12.4850343,35.4137029 C13.5316312,38.6215436 16.5607626,40.9587609 20.1511899,41.024091 C17.3420439,43.1906501 13.8049463,44.482586 9.9585361,44.482586 C9.29458036,44.482586 8.64395707,44.4439212 8,44.3692583 C11.6330911,46.6611445 15.9488034,47.9984114 20.5804946,47.9984114 C35.6754883,47.9984114 43.9282714,35.6910224 43.9282714,25.0155524 C43.9282714,24.6662364 43.9229385,24.3155872 43.9069395,23.970271 C45.5081661,22.8316608 46.9014066,21.4090648 48,19.787812 C46.5294314,20.43178 44.9482035,20.8637585 43.2869809,21.0597488 C44.9828678,20.0597985 46.2814479,18.4772104 46.8960736,16.5893041" id="Fill-11-Copy-4"></path>
        </g>
    </g>
</svg>